<svg width="24" height="21" viewBox="0 0 24 21" fill="none" xmlns="http://www.w3.org/2000/svg">
<path fill-rule="evenodd" clip-rule="evenodd" d="M10 12L15.19 9L10 6V12ZM21.56 4.17C21.69 4.64 21.78 5.27 21.84 6.07C21.91 6.87 21.94 7.56 21.94 8.16L22 9C22 11.19 21.84 12.8 21.56 13.83C21.31 14.73 20.73 15.31 19.83 15.56C19.36 15.69 18.5 15.78 17.18 15.84C15.88 15.91 14.69 15.94 13.59 15.94L12 16C7.81 16 5.2 15.84 4.17 15.56C3.27 15.31 2.69 14.73 2.44 13.83C2.31 13.36 2.22 12.73 2.16 11.93C2.09 11.13 2.06 10.44 2.06 9.84L2 9C2 6.81 2.16 5.2 2.44 4.17C2.69 3.27 3.27 2.69 4.17 2.44C4.64 2.31 5.5 2.22 6.82 2.16C8.12 2.09 9.31 2.06 10.41 2.06L12 2C16.19 2 18.8 2.16 19.83 2.44C20.73 2.69 21.31 3.27 21.56 4.17Z" fill="#F74B4B"/>
<path fill-rule="evenodd" clip-rule="evenodd" d="M10 12L15.19 9L10 6V12ZM21.56 4.17C21.69 4.64 21.78 5.27 21.84 6.07C21.91 6.87 21.94 7.56 21.94 8.16L22 9C22 11.19 21.84 12.8 21.56 13.83C21.31 14.73 20.73 15.31 19.83 15.56C19.36 15.69 18.5 15.78 17.18 15.84C15.88 15.91 14.69 15.94 13.59 15.94L12 16C7.81 16 5.2 15.84 4.17 15.56C3.27 15.31 2.69 14.73 2.44 13.83C2.31 13.36 2.22 12.73 2.16 11.93C2.09 11.13 2.06 10.44 2.06 9.84L2 9C2 6.81 2.16 5.2 2.44 4.17C2.69 3.27 3.27 2.69 4.17 2.44C4.64 2.31 5.5 2.22 6.82 2.16C8.12 2.09 9.31 2.06 10.41 2.06L12 2C16.19 2 18.8 2.16 19.83 2.44C20.73 2.69 21.31 3.27 21.56 4.17Z" fill="url(#paint0_linear_556_20749)"/>
<defs>
<linearGradient id="paint0_linear_556_20749" x1="6.93019" y1="3.64591" x2="15.0589" y2="16.6295" gradientUnits="userSpaceOnUse">
<stop stop-color="#46EDA7"/>
<stop offset="0.214444" stop-color="#8ABEF1"/>
<stop offset="0.468695" stop-color="#EB99FF"/>
<stop offset="0.781201" stop-color="#EFCE8F"/>
<stop offset="1" stop-color="#6DFFFF"/>
</linearGradient>
</defs>
</svg>
